<svg width="20" height="18" viewBox="0 0 20 18" fill="none" xmlns="http://www.w3.org/2000/svg">
  <path d="M3.38889 5.16129C3.38889 4.74614 3.47439 4.33506 3.64051 3.95152C3.80663 3.56797 4.05011 3.21947 4.35706 2.92592C4.66401 2.63237 5.02841 2.39951 5.42946 2.24064C5.83051 2.08177 6.26035 2 6.69444 2C7.12854 2 7.55838 2.08177 7.95943 2.24064C8.36047 2.39951 8.72488 2.63237 9.03182 2.92592C9.33877 3.21947 9.58226 3.56797 9.74838 3.95152C9.9145 4.33506 10 4.74614 10 5.16129C10 5.57644 9.9145 5.98752 9.74838 6.37106C9.58226 6.75461 9.33877 7.10311 9.03182 7.39666C8.72488 7.69021 8.36047 7.92307 7.95943 8.08194C7.55838 8.24081 7.12854 8.32258 6.69444 8.32258C6.26035 8.32258 5.83051 8.24081 5.42946 8.08194C5.02841 7.92307 4.66401 7.69021 4.35706 7.39666C4.05011 7.10311 3.80663 6.75461 3.64051 6.37106C3.47439 5.98752 3.38889 5.57644 3.38889 5.16129ZM1.5 14.6452C1.5 11.9016 3.82569 9.67742 6.69444 9.67742C9.56319 9.67742 11.8889 11.9016 11.8889 14.6452V14.8145C11.8889 15.4694 11.334 16 10.6493 16H2.73958C2.05486 16 1.5 15.4694 1.5 14.8145V14.6452ZM14.25 3.35484C15.0014 3.35484 15.7221 3.64032 16.2535 4.14848C16.7848 4.65665 17.0833 5.34587 17.0833 6.06452C17.0833 6.78317 16.7848 7.47238 16.2535 7.98055C15.7221 8.48871 15.0014 8.77419 14.25 8.77419C13.4986 8.77419 12.7779 8.48871 12.2465 7.98055C11.7152 7.47238 11.4167 6.78317 11.4167 6.06452C11.4167 5.34587 11.7152 4.65665 12.2465 4.14848C12.7779 3.64032 13.4986 3.35484 14.25 3.35484ZM14.25 10.129C16.5964 10.129 18.5 11.9496 18.5 14.1935V14.8258C18.5 15.475 17.951 16 17.2722 16H12.9986C13.1934 15.6472 13.3056 15.2435 13.3056 14.8145V14.6452C13.3056 13.1915 12.792 11.8536 11.9332 10.7867C12.6002 10.3718 13.397 10.129 14.25 10.129Z" fill="#5264CE"/>
</svg>

