<svg width="26" height="23" viewBox="0 0 26 23" fill="none" xmlns="http://www.w3.org/2000/svg">
  <path d="M1 19.9677C1 15.8524 4.28333 12.5161 8.33333 12.5161C12.3833 12.5161 15.6667 15.8524 15.6667 19.9677V20.2218C15.6667 21.204 14.8833 22 13.9167 22H2.75C1.78333 22 1 21.204 1 20.2218V19.9677ZM19 13.1935C22.3125 13.1935 25 15.9244 25 19.2903V20.2387C25 21.2125 24.225 22 23.2667 22H17.2333C17.5083 21.4707 17.6667 20.8653 17.6667 20.2218V19.9677C17.6667 17.7873 16.9417 15.7804 15.7292 14.18C16.6708 13.5576 17.7958 13.1935 19 13.1935Z" fill="#5264CE"/>
  <path d="M22.3465 5.97745C22.2634 4.97434 21.4084 4.62898 20.3154 4.51404L20.3378 3.13123L19.4931 3.11856L19.4718 4.4671L18.7993 4.46388L18.8225 3.10517L17.9779 3.09301L17.956 4.48054L17.4205 4.47933L17.4193 4.47421L16.2511 4.4556L16.238 5.35869C16.238 5.35869 16.8615 5.35987 16.8532 5.36612C17.1956 5.37413 17.3009 5.57346 17.3306 5.74191L17.3103 7.32385L17.3997 7.33212L17.3079 7.33413L17.2742 9.54728C17.2601 9.6531 17.1932 9.82412 16.9529 9.81655C16.9655 9.82873 16.3435 9.81316 16.3435 9.81316L16.1588 10.8157L17.2579 10.8315L17.8604 10.8468L17.8373 12.2497L18.6817 12.2614L18.6995 10.8748L19.3794 10.8909L19.357 12.2742L20.2016 12.2864L20.2202 10.8845C21.6427 10.8249 22.644 10.4848 22.7859 9.15122C22.9 8.07778 22.4026 7.59498 21.5988 7.38336C22.0939 7.14636 22.405 6.70843 22.3419 5.97852L22.3465 5.97745ZM21.1201 8.9612C21.1068 10.0111 19.3094 9.86096 18.7392 9.85704L18.7673 7.99648C19.3393 8.00859 21.1369 7.86622 21.1189 8.95608L21.1201 8.9612ZM20.7642 6.33233C20.7529 7.28464 19.2518 7.15275 18.7782 7.14677L18.8029 5.46128C19.2816 5.46658 20.7808 5.34046 20.7642 6.33233Z" fill="#5264CE"/>
  <path d="M12.3555 4.45059C12.2591 3.28808 11.2683 2.88783 10.0016 2.75463L10.0276 1.15208L9.04866 1.1374L9.02398 2.70024L8.24457 2.6965L8.2715 1.12188L7.29269 1.10779L7.26731 2.71581L6.64665 2.7144L6.64527 2.70847L5.29139 2.68691L5.27624 3.7335C5.27624 3.7335 5.99882 3.73488 5.98926 3.74211C6.38601 3.7514 6.50811 3.98241 6.54243 4.17763L6.519 6.01094L6.62255 6.02053L6.51616 6.02286L6.47718 8.58769C6.46079 8.71033 6.38325 8.90853 6.10481 8.89976C6.11936 8.91387 5.39852 8.89583 5.39852 8.89583L5.18453 10.0576L6.45825 10.076L7.15649 10.0937L7.12965 11.7196L8.10832 11.7331L8.12896 10.1262L8.91685 10.1448L8.89095 11.748L9.86976 11.762L9.89127 10.1374C11.5398 10.0683 12.7003 9.67414 12.8647 8.1287C12.997 6.88467 12.4205 6.32516 11.489 6.07991C12.0627 5.80525 12.4232 5.29773 12.3501 4.45183L12.3555 4.45059ZM10.9342 7.90848C10.9187 9.12522 8.83577 8.95122 8.17498 8.94667L8.20744 6.79046C8.87044 6.80449 10.9537 6.6395 10.9328 7.90255L10.9342 7.90848ZM10.5217 4.86186C10.5086 5.9655 8.76892 5.81266 8.22014 5.80572L8.24869 3.8524C8.80355 3.85854 10.541 3.71238 10.5217 4.86186Z" fill="#5264CE"/>
</svg>

